<svg id="a63a9d12-1202-4058-899a-610cea1d83ed" data-name="Layer 1" xmlns="http://www.w3.org/2000/svg" viewBox="0 0 180 155.17"><title>cat</title><path d="M39.7,12.23c-4.93,4.17-7.22,11.53-10,17.18s-5.8,11.48-6.41,17.86C22.14,59.08,29.32,69.72,38.2,76.78c.75.59,1.82-.46,1.06-1.06-9-7.14-16.27-18-14.28-30,1-5.82,3.81-11.13,6.4-16.36s4.82-12.21,9.38-16.06c.74-.62-.33-1.68-1.06-1.06Z"/><path d="M40.52,13.33c2.68,0,5.65-.34,8.28.11,4.14.7,6.25,3.73,9.29,6.21,4.23,3.45,8.41.3,13.39,2.67.87.41,1.63-.88.76-1.29-2.68-1.28-4.73-1.41-7.61-1.52-2.64-.1-1.41,1.61-5.47-.92-1.44-.89-2.58-2.49-3.87-3.58-4.47-3.8-9.21-3.23-14.77-3.18a.75.75,0,0,0,0,1.5Z"/><path d="M73.4,22.31c2.53-2.48,5.08-5.69,8.1-7.59,5-3.12,11.26-1.78,13.89,3.63,1.53,3.14,1.12,8.65,1.44,12.12.36,3.92.75,7.84,1.08,11.77C98.56,49.85,97.29,56.72,95,64c-2.62,8.42-7.18,13.87-15,18-.85.45-.1,1.74.76,1.29C89,79,93.75,73.16,96.48,64.37A68,68,0,0,0,99.6,51.11c.58-5.85-.47-11.93-1-17.76-.59-6.48.68-18-6.82-21C83.45,9,77.61,16.09,72.33,21.25c-.69.68.37,1.74,1.07,1.06Z"/><path d="M56.57,37.65h-13a.75.75,0,0,0,0,1.5h13a.75.75,0,0,0,0-1.5Z"/><path d="M73,40.42q2.61-.12,5.22-.15c1.66,0,4-.33,5.33.72.77.58,1.52-.72.76-1.3-1.33-1-2.88-.92-4.48-.92-2.28,0-4.56,0-6.83.15-1,0-1,1.54,0,1.5Z"/><path d="M72.44,39.86v2.61a.75.75,0,0,0,1.5,0V39.86a.75.75,0,0,0-1.5,0Z"/><path d="M43.06,38.55a17,17,0,0,0-.1,3.27c.07,1,1.57,1,1.5,0a17,17,0,0,1,.1-3.27c.12-.95-1.38-.94-1.5,0Z"/><path d="M64,48.76l-2.6,2.33a4.82,4.82,0,0,0-1.6,2,1.9,1.9,0,0,0,1.5,2.55,4.1,4.1,0,0,0,4.1-1.31c1.08-1.46.85-3.3.57-5-.16-1-1.61-.54-1.45.4.31,1.85.31,5-2.56,4.46-1.57-.32-.12-1.47.5-2l2.6-2.32c.73-.65-.34-1.71-1.06-1.07Z"/><path d="M57.06,61.73c-.23,1.94-.06,4.4,2.28,4.88s3.87-1.54,4.36-3.55H62.25c.57,1.69,1.83,4.49,4,4.52,2.69,0,2-3.26,2.74-4.82.41-.87-.88-1.63-1.29-.76s-.24,1.77-.57,2.57q.14.84-.93.72c-.72.51-1.22.34-1.52-.53a8.08,8.08,0,0,1-1-2.1.76.76,0,0,0-1.45,0,3.81,3.81,0,0,1-.87,1.89c-1,1-1.68.88-2.17-.23-.89-1-.8-1.33-.65-2.59.11-1-1.39-.95-1.5,0Z"/><path d="M45.47,21.44a13.71,13.71,0,0,1,1.68-2.35c.55-.49.86-.13,1.3.27a4,4,0,0,1,.79,1,.75.75,0,0,0,1.3-.75c-.62-1-1.87-2.47-3.22-2.4-.72.05-1.08.59-1.47,1.12l-1.68,2.35c-.56.79.74,1.54,1.3.76Z"/><path d="M83.67,22.62c.78-.37,1.27-1.19,2-1.55,1.34-.63,2.17,1.09,2.63,2.05s1.72.11,1.3-.76c-.64-1.31-1.55-2.8-3.18-2.93s-2.26,1.28-3.54,1.9c-.87.41-.11,1.71.76,1.29Z"/><path d="M78.35,51.72a81,81,0,0,1,13.51-5c4.29-1.14,9.3-2.83,13.73-2.51,1,.06,1-1.44,0-1.5-4.66-.33-9.66,1.38-14.13,2.56a83.28,83.28,0,0,0-13.87,5.12c-.88.41-.11,1.7.76,1.29Z"/><path d="M79.25,53.77a70.85,70.85,0,0,1,23.08-1.59c1,.09,1-1.41,0-1.5a72.16,72.16,0,0,0-23.48,1.64c-.94.22-.54,1.67.4,1.45Z"/><path d="M78.4,56.91c3.66,0,7.4-.21,11.06,0,3.92.23,7.17,1.88,10.38,4,.8.53,1.56-.76.75-1.29-2.65-1.76-5.68-3.5-8.87-4-4.26-.72-9-.16-13.32-.16a.75.75,0,0,0,0,1.5Z"/><path d="M44.73,51.44c-10-3.16-20.33-3-30.7-2.76a.75.75,0,0,0,0,1.5c10.23-.29,20.44-.41,30.31,2.71.92.29,1.31-1.15.39-1.45Z"/><path d="M42.56,53.78c-9.36-.67-17.25-.67-25.73,3.62-.86.44-.1,1.74.76,1.3,8.19-4.15,16-4.06,25-3.42,1,.07,1-1.43,0-1.5Z"/><path d="M40,57.56c-8.58,1.93-19,3.52-25.39,10.12-.67.69.39,1.75,1.06,1.06C21.83,62.43,32.2,60.86,40.44,59c.94-.21.55-1.66-.4-1.45Z"/><path d="M40.63,75.75a37.27,37.27,0,0,0,4.31,4.75c.71.65,1.77-.41,1.06-1.06A35.83,35.83,0,0,1,41.92,75c-.58-.76-1.88,0-1.29.76Z"/><path d="M47.13,77a4.65,4.65,0,0,1,2.07,2c.46.85,1.75.09,1.3-.76a6,6,0,0,0-2.62-2.53c-.86-.43-1.62.87-.75,1.29Z"/><path d="M51.64,76.72l1,.82c.74.61,1.8-.44,1.06-1.06l-1-.82c-.74-.61-1.81.44-1.07,1.06Z"/><path d="M55.13,78l.66,1c.54.79,1.84,0,1.3-.76l-.67-1c-.54-.79-1.84,0-1.29.76Z"/><path d="M72.42,82.37c1.78-.85,3.53-1.74,5.25-2.7.85-.46.09-1.76-.75-1.29q-2.6,1.43-5.26,2.69c-.87.41-.11,1.71.76,1.3Z"/><path d="M77.48,82.1a4.76,4.76,0,0,0,3.28-2.47c.44-.86-.86-1.62-1.3-.76a3.28,3.28,0,0,1-2.38,1.78c-.94.19-.54,1.63.4,1.45Z"/><path d="M34,75.44c-7.59,15.38-11,33.33-8.12,50.38,1.11,6.48,4.5,9.84,11.22,9.37,9.89-.7,19.59.74,29.44,1.74,1,.1,1-1.4,0-1.5-7.37-.75-14.85-2-22.26-2.17-3.14-.09-6.45.88-9.55.52-7.17-.82-7.49-7.59-8-13.17a84,84,0,0,1,8.54-44.42c.42-.86-.87-1.62-1.3-.75Z"/><path d="M83.68,138.11c9.51-2.94,17.43,3.86,26.5,5.22,6.45,1,11.76-1.53,16.65-5.56a68.68,68.68,0,0,0,8.19-8.08c3.25-3.75,6.08-7.77,11.59-7.84,5.11-.06,9.76,2.57,14.34,4.5,1.32.56,3.4,1.87,4.83.69,3-2.52-.64-7.65-3-9.06-4.88-3-12.73-2.27-18.1-1.43-6.82,1.08-11,4.54-16,9.08-3.09,2.83-5.41,6-9.28,7.94-1.9.94-4.71,2-6.87,2-4.61-.14-6.49-4.8-5.76-8.77.76-4.13,1.59-7.94.76-12.18-.88-4.53-2.81-9-4.38-13.29a180.12,180.12,0,0,0-11.4-26.06c-.46-.85-1.76-.09-1.29.75a172.22,172.22,0,0,1,10.62,24c3.15,8.6,6.39,16.21,4.46,25.49-.84,4.08-.67,8.66,3.61,11,3.71,2,9.82-.74,13-2.73,5.66-3.59,9.17-9.91,15.07-13.23a26.26,26.26,0,0,1,11.27-2.88c1.45-.09,2.91-.1,4.36-.07,2,0,8-.2,9.16,1.7l-.18,2.9q1.13,3.89-.94,2.55a8.57,8.57,0,0,1-2.29-1c-1.46-.64-2.91-1.28-4.41-1.83a19.68,19.68,0,0,0-9.25-1.41c-6,.8-8.91,5.93-12.7,10-7.26,7.84-15.17,13.79-26.29,10.24-7.57-2.41-14.62-6.57-22.72-4.07-.92.29-.53,1.74.4,1.45Z"/><path d="M41.71,92.29c-3,10.81-2.21,21.89-.67,32.89.37,2.63.24,7.53,3.59,8.32,2,.47,3.15-.66,3.21-2.6l-1.4.38c.93,1.72,3.31,4.49,5.66,3.5,1.84-.78,1.36-2.95,1-4.68-.14-.85-1.46-.63-1.47.2,0,4.49,5.25,6.3,6.27,1.33,1.27-6.13.38-12.7,1.52-18.94a72.11,72.11,0,0,0,1.37-17.1c-.05-1-1.55-1-1.5,0,.34,6.72-.76,13-1.84,19.57a55.38,55.38,0,0,0-.69,6.91c0,1.28,0,2.55-.05,3.83,0,1,0,1.91-.09,2.87q.34,2.63-3.49,1.53l-1.47.2-4,0a.76.76,0,0,0-1.4.38c-2.08.29-3.15-.29-3.19-1.77-.11-.54-.2-1.09-.27-1.64-.32-2-.6-4.1-.85-6.15-.37-3-.68-6.07-.82-9.12a61.27,61.27,0,0,1,1.95-19.54.75.75,0,0,0-1.45-.39Z"/><path d="M71.22,96.5A87.62,87.62,0,0,0,68.85,116a84.51,84.51,0,0,0,.58,10.18c.2,1.73.7,3.86.09,5.52-.51,1.4-2.23,2.94-3.12,4.11a.75.75,0,0,0,.12.91c2.76,2.4,5.41,1.1,7.6-1.42l-1.26-.73-1.31,3.18a.76.76,0,0,0,.45,1.1c2.78.59,5.31.77,6.76-2l-1.37-.58-.33,2.15a.78.78,0,0,0,.53.93c2,.49,3.86.6,5.15-1.33,1.86-2.75,2.55-8,3.12-11.25,1.7-9.74.09-19.73.68-29.55,0-1-1.45-1-1.5,0-.43,7.07.22,14.12,0,21.19a50.94,50.94,0,0,1-1.46,11.53c-.41,1.57-.7,3.91-1.51,5.24s-3.77,4.67-3.28,1.49c.12-.78-.94-1.4-1.37-.58-3.08,1.72-4.34,1.94-3.78.68a12.88,12.88,0,0,0,.62-1.81.75.75,0,0,0-1.25-.73c-.9,1.54-2.34,1.85-4.32,1l1-1.36c.38-.95,1.35-1.52,1.67-2.53.89-2.74-.76-6.87-.94-9.74A85.51,85.51,0,0,1,72.66,96.9c.22-.94-1.23-1.34-1.44-.4Z"/><path d="M43.88,39.29a7.56,7.56,0,0,1-.14,2.42c-.22.94,1.23,1.34,1.44.4a8.63,8.63,0,0,0,.2-2.82c-.09-.95-1.59-1-1.5,0Z"/><path d="M73.58,40a3.12,3.12,0,0,0-.08,1.18c0,.18.12.73-.07.71a.75.75,0,0,0-.75.75.78.78,0,0,0,.75.75,1.48,1.48,0,0,0,1.49-1c.23-.65-.09-1.32.11-2,.29-.93-1.16-1.32-1.45-.4Z"/><path d="M44.19,42.71a.75.75,0,0,0,0-1.5.75.75,0,0,0,0,1.5Z"/></svg>